<svg width="115" height="115" viewBox="0 0 115 115" fill="none" xmlns="http://www.w3.org/2000/svg">
<path d="M33.5417 43.125H38.3334V47.9167H33.5417V43.125Z" fill="#C1A480"/>
<path d="M38.3334 38.3333H43.125V43.125H38.3334V38.3333Z" fill="#C1A480"/>
<path d="M23.9584 52.7083H28.75V57.5H23.9584V52.7083Z" fill="#C1A480"/>
<path d="M86.25 52.7083H91.0417V57.5H86.25V52.7083Z" fill="#C1A480"/>
<path d="M81.4584 47.9167H86.25V52.7083H81.4584V47.9167Z" fill="#C1A480"/>
<path d="M76.6667 43.125H81.4584V47.9167H76.6667V43.125Z" fill="#C1A480"/>
<path d="M71.875 38.3333H76.6667V43.125H71.875V38.3333Z" fill="#C1A480"/>
<path d="M67.0834 33.5417H71.875V38.3333H67.0834V33.5417Z" fill="#C1A480"/>
<path d="M62.2917 28.75H67.0834V33.5417H62.2917V28.75Z" fill="#C1A480"/>
<path d="M57.5 23.9583H62.2917V28.75H57.5V23.9583Z" fill="#C1A480"/>
<path d="M47.9167 28.75H52.7084V33.5417H47.9167V28.75Z" fill="#C1A480"/>
<path d="M52.7084 23.9583H57.5V28.75H52.7084V23.9583Z" fill="#C1A480"/>
<path d="M43.125 33.5417H47.9167V38.3333H43.125V33.5417Z" fill="#C1A480"/>
<path d="M28.75 47.9167H33.5417V52.7083H28.75V47.9167Z" fill="#C1A480"/>
<path d="M33.5417 57.5H28.75V86.25H33.5417V57.5Z" fill="#C1A480"/>
<path d="M33.5417 86.25V91.0417H47.9167V86.25H33.5417Z" fill="#C1A480"/>
<path d="M47.9167 86.25H52.7084V71.875H47.9167V86.25Z" fill="#C1A480"/>
<path d="M52.7084 67.0833V71.875H62.2917V67.0833H52.7084Z" fill="#C1A480"/>
<path d="M67.0834 71.875H62.2917V86.25H67.0834V71.875Z" fill="#C1A480"/>
<path d="M67.0834 86.25V91.0417H81.4584V86.25H67.0834Z" fill="#C1A480"/>
<path d="M81.4584 86.25H86.25V57.5H81.4584V86.25Z" fill="#C1A480"/>
<path d="M28.75 52.7083V57.5H33.5417V86.25H47.9167V71.875H52.7083V67.0833H62.2917V71.875H67.0833V86.25H81.4583V57.5H86.25V52.7083H81.4583V47.9167H76.6667V43.125H71.875V38.3333H67.0833V33.5417H62.2917V28.75H52.7083V33.5417H47.9167V38.3333H43.125V43.125H38.3333V47.9167H33.5417V52.7083H28.75Z" fill="#EEE5DA"/>
</svg>
