<svg width="115" height="115" viewBox="0 0 115 115" fill="none" xmlns="http://www.w3.org/2000/svg">
<path d="M71.875 28.75H43.125V33.5417H33.5417V43.125H28.75V71.875H33.5417V81.4583H43.125V86.25H71.875V81.4583H81.4583V71.875H86.25V43.125H81.4583V33.5417H71.875V28.75Z" fill="#EEE5DA"/>
<path d="M43.125 86.25V91.0416H71.875V86.25H43.125Z" fill="#C1A480"/>
<path d="M33.5417 81.4583V86.25H43.125V81.4583H33.5417Z" fill="#C1A480"/>
<path d="M33.5417 71.875H28.75V81.4583H33.5417V71.875Z" fill="#C1A480"/>
<path d="M23.9584 71.875H28.75V43.125H23.9584V71.875Z" fill="#C1A480"/>
<path d="M28.75 43.125H33.5417V33.5416H28.75L28.75 43.125Z" fill="#C1A480"/>
<path d="M33.5417 28.75V33.5416H43.125V28.75H33.5417Z" fill="#C1A480"/>
<path d="M43.125 23.9583V28.75H71.875V23.9583H43.125Z" fill="#C1A480"/>
<path d="M81.4584 33.5416V28.75H71.875V33.5416H81.4584Z" fill="#C1A480"/>
<path d="M81.4584 43.125H86.25V33.5416H81.4584V43.125Z" fill="#C1A480"/>
<path d="M86.25 71.875H91.0417V43.125H86.25V71.875Z" fill="#C1A480"/>
<path d="M86.25 71.875H81.4584V81.4583H86.25V71.875Z" fill="#C1A480"/>
<path d="M81.4584 86.25V81.4583H71.875V86.25H81.4584Z" fill="#C1A480"/>
<path d="M55.1041 43.125H59.8958V62.2917H55.1041V43.125Z" fill="#9E8067"/>
<path d="M55.1041 67.0833H59.8958V71.875H55.1041V67.0833Z" fill="#9E8067"/>
</svg>
