<svg width="115" height="115" viewBox="0 0 115 115" fill="none" xmlns="http://www.w3.org/2000/svg">
<path d="M71.875 70.2778V84.6528H67.0833V79.8611H52.7083H47.9167V65.4861H38.3333V60.6945H28.75V55.9028H38.3333V51.1111H47.9167V46.3195H57.5V41.5278H67.0833V36.7361H76.6667V31.9445H86.25V41.5278H81.4583V55.9028H76.6667V70.2778H71.875Z" fill="#EEE5DA"/>
<path d="M23.9584 55.9028H28.75V60.6944H23.9584V55.9028Z" fill="#C1A480"/>
<path d="M67.0834 84.6528H71.875V89.4444H67.0834V84.6528Z" fill="#C1A480"/>
<path d="M62.2917 79.8611H67.0834V84.6528H62.2917V79.8611Z" fill="#C1A480"/>
<path d="M52.7084 60.6944H57.5V65.4861H52.7084V60.6944Z" fill="#C1A480"/>
<path d="M57.5 55.9028H62.2917V60.6944H57.5V55.9028Z" fill="#C1A480"/>
<path d="M62.2917 51.1111H67.0834V55.9028H62.2917V51.1111Z" fill="#C1A480"/>
<path d="M67.0834 46.3194H71.875V51.1111H67.0834V46.3194Z" fill="#C1A480"/>
<path d="M71.875 41.5278H76.6667V46.3194H71.875V41.5278Z" fill="#C1A480"/>
<path d="M76.6667 36.7361H81.4584V41.5278H76.6667V36.7361Z" fill="#C1A480"/>
<path d="M28.75 51.1111V55.9028H38.3334V51.1111H28.75Z" fill="#C1A480"/>
<path d="M38.3334 65.4861V60.6944H28.75V65.4861H38.3334Z" fill="#C1A480"/>
<path d="M52.7084 79.8611H47.9167V70.2778H52.7084V65.4861H38.3334V70.2778H43.125V89.4444H47.9167V84.6528H52.7084V79.8611Z" fill="#C1A480"/>
<path d="M62.2917 75.0694H57.5V70.2778H52.7084V79.8611H62.2917V75.0694Z" fill="#C1A480"/>
<path d="M76.6667 70.2778H71.875V84.6528H76.6667V70.2778Z" fill="#C1A480"/>
<path d="M81.4584 55.9028H76.6667V70.2778H81.4584V55.9028Z" fill="#C1A480"/>
<path d="M38.3334 46.3194V51.1111H47.9167V46.3194H38.3334Z" fill="#C1A480"/>
<path d="M47.9167 41.5278V46.3194H57.5V41.5278H47.9167Z" fill="#C1A480"/>
<path d="M57.5 36.7361V41.5278H67.0834V36.7361H57.5Z" fill="#C1A480"/>
<path d="M76.6667 36.7361V31.9444H67.0834V36.7361H76.6667Z" fill="#C1A480"/>
<path d="M76.6667 27.1528V31.9444H86.25V27.1528H76.6667Z" fill="#C1A480"/>
<path d="M91.0417 31.9444H86.25V41.5278H91.0417V31.9444Z" fill="#C1A480"/>
<path d="M86.25 41.5278H81.4584V55.9028H86.25V41.5278Z" fill="#C1A480"/>
</svg>
