<svg width="115" height="115" viewBox="0 0 115 115" fill="none" xmlns="http://www.w3.org/2000/svg">
<path d="M33.5417 44.7222V35.1389H81.4583V44.7222H86.25V73.4722H81.4583V78.2639H33.5417V73.4722H28.75V44.7222H33.5417Z" fill="#EEE5DA"/>
<path d="M28.75 73.4722H33.5417V78.2639H28.75V73.4722Z" fill="#C1A480"/>
<path d="M81.4584 73.4722H86.25V78.2639H81.4584V73.4722Z" fill="#C1A480"/>
<path d="M71.875 49.5139H76.6667V54.3056H71.875V49.5139Z" fill="#C1A480"/>
<path d="M67.0834 54.3056H71.875V59.0972H67.0834V54.3056Z" fill="#C1A480"/>
<path d="M76.6667 44.7222H81.4584V49.5139H76.6667V44.7222Z" fill="#C1A480"/>
<path d="M33.5417 44.7222H38.3334V49.5139H33.5417V44.7222Z" fill="#C1A480"/>
<path d="M38.3334 49.5139H43.125V54.3056H38.3334V49.5139Z" fill="#C1A480"/>
<path d="M43.125 54.3056H47.9167V59.0972H43.125V54.3056Z" fill="#C1A480"/>
<path d="M86.25 73.4722H91.0417V39.9306H86.25V35.1389H81.4584V44.7222H86.25V73.4722Z" fill="#C1A480"/>
<path d="M67.0834 63.8889V59.0972H47.9167V63.8889H67.0834Z" fill="#C1A480"/>
<path d="M28.75 39.9306H23.9584V73.4722H28.75V44.7222H33.5417V35.1389H28.75V39.9306Z" fill="#C1A480"/>
<path d="M33.5417 30.3472V35.1389H81.4584V30.3472H33.5417Z" fill="#C1A480"/>
<path d="M33.5417 78.2639V83.0556H81.4584V78.2639H33.5417Z" fill="#C1A480"/>
</svg>
