<svg width="115" height="115" viewBox="0 0 115 115" fill="none" xmlns="http://www.w3.org/2000/svg">
<path d="M62.2917 28.75L67.0833 28.7501L67.0833 23.9584H62.2917V28.75Z" fill="#C1A480"/>
<path d="M52.7083 28.75L47.9167 28.7501L47.9167 23.9584H52.7083V28.75Z" fill="#C1A480"/>
<path d="M86.25 52.7083H91.0417V47.9166L86.25 47.9168L86.25 52.7083Z" fill="#C1A480"/>
<path d="M28.75 52.7083H23.9583V47.9166H28.75V52.7083Z" fill="#C1A480"/>
<path d="M86.25 67.0833H91.0417L91.0417 62.2918L86.25 62.2916V67.0833Z" fill="#C1A480"/>
<path d="M28.75 67.0833H23.9583L23.9583 62.2918L28.75 62.2916V67.0833Z" fill="#C1A480"/>
<path d="M62.2917 91.0416L67.0833 91.0418L67.0833 86.25L62.2917 86.2501L62.2917 91.0416Z" fill="#C1A480"/>
<path d="M52.7083 91.0416L47.9167 91.0418L47.9167 86.25L52.7083 86.2501L52.7083 91.0416Z" fill="#C1A480"/>
<path d="M71.875 47.9166H67.0833V67.0833H71.875V47.9166Z" fill="#C1A480"/>
<path d="M67.0833 47.9166L67.0833 43.1251H47.9167L47.9167 47.9166H67.0833Z" fill="#C1A480"/>
<path d="M47.9167 47.9166H43.125V67.0833H47.9167V47.9166Z" fill="#C1A480"/>
<path d="M67.0833 71.875L67.0833 67.0833H47.9167L47.9167 71.875H67.0833Z" fill="#C1A480"/>
<path d="M33.5417 81.4583L33.5417 86.25H47.9167V81.4584L33.5417 81.4583Z" fill="#C1A480"/>
<path d="M28.75 81.4583H33.5417V67.0834L28.75 67.0833L28.75 81.4583Z" fill="#C1A480"/>
<path d="M23.9583 52.7083L19.1667 52.7084V62.2918H23.9583L23.9583 52.7083Z" fill="#C1A480"/>
<path d="M28.75 47.9166L33.5417 47.9168L33.5417 33.5418L28.75 33.5416L28.75 47.9166Z" fill="#C1A480"/>
<path d="M47.9167 33.5418V28.7501H33.5417V33.5418H47.9167Z" fill="#C1A480"/>
<path d="M62.2917 23.9584L62.2917 19.1666H52.7083L52.7083 23.9584H62.2917Z" fill="#C1A480"/>
<path d="M67.0833 28.7501V33.5418H81.4583V28.7501H67.0833Z" fill="#C1A480"/>
<path d="M81.4583 47.9168H86.25V33.5416L81.4583 33.5418L81.4583 47.9168Z" fill="#C1A480"/>
<path d="M95.8333 52.7084L91.0417 52.7083L91.0417 62.2918H95.8333V52.7084Z" fill="#C1A480"/>
<path d="M81.4583 81.4583H86.25L86.25 67.0833L81.4583 67.0834V81.4583Z" fill="#C1A480"/>
<path d="M81.4583 86.25L81.4583 81.4583L67.0833 81.4584V86.25H81.4583Z" fill="#C1A480"/>
<path d="M62.2917 95.8333V91.0416H52.7083V95.8333H62.2917Z" fill="#C1A480"/>
<path fill-rule="evenodd" clip-rule="evenodd" d="M33.5417 33.5416H47.9167V28.7499H52.7083V23.9583H62.2917V28.7499H67.0833V33.5416H81.4583V47.9166H86.25V52.7083H91.0417V62.2916H86.25V67.0832H81.4583V81.4582H67.0833V86.2499H62.2917V91.0416H52.7083V86.2499H47.9167V81.4582H33.5417V67.0832H28.75V62.2916H23.9583V52.7083H28.75V47.9166H33.5417V33.5416ZM47.9167 43.1249V47.9166H43.125V67.0832H47.9167V71.8749H67.0833V67.0832H71.875V47.9166H67.0833V43.1249H47.9167Z" fill="#EEE5DA"/>
</svg>
